<svg width="45" height="45" viewBox="0 0 45 45" fill="none" xmlns="http://www.w3.org/2000/svg">
<path fill-rule="evenodd" clip-rule="evenodd" d="M32.6562 20.9375V29.5312H21.7188V15.4688H27.1875V19.375C27.1875 19.7894 27.3521 20.1868 27.6451 20.4799C27.9382 20.7729 28.3356 20.9375 28.75 20.9375H32.6562ZM29.5312 15.6578L32.4672 18.5938H29.5312V15.6578ZM20.9375 13.125C20.5231 13.125 20.1257 13.2896 19.8326 13.5826C19.5396 13.8757 19.375 14.2731 19.375 14.6875H16.25C15.8356 14.6875 15.4382 14.8521 15.1451 15.1451C14.8521 15.4382 14.6875 15.8356 14.6875 16.25H11.5625C11.1481 16.25 10.7507 16.4146 10.4576 16.7076C10.1646 17.0007 10 17.3981 10 17.8125V27.1875C10 27.6019 10.1646 27.9993 10.4576 28.2924C10.7507 28.5854 11.1481 28.75 11.5625 28.75H14.6875C14.6875 29.1644 14.8521 29.5618 15.1451 29.8549C15.4382 30.1479 15.8356 30.3125 16.25 30.3125H19.375C19.375 30.7269 19.5396 31.1243 19.8326 31.4174C20.1257 31.7104 20.5231 31.875 20.9375 31.875H33.4375C33.8519 31.875 34.2493 31.7104 34.5424 31.4174C34.8354 31.1243 35 30.7269 35 30.3125V18.4594C34.9999 18.045 34.8352 17.6476 34.5422 17.3547L30.7703 13.5828C30.4774 13.2898 30.08 13.1251 29.6656 13.125H20.9375ZM19.375 27.9688V17.0312H17.0312V27.9688H19.375ZM14.6875 26.4062V18.5938H12.3438V26.4062H14.6875Z" fill="#F9FDFF"/>
</svg>
